<svg width="110" height="72" xmlns="http://www.w3.org/2000/svg" xmlns:html="http://www.w3.org/1999/xhtml" xmlns:xlink="http://www.w3.org/1999/xlink" version="1.1"><g data-id="u^f*?adq5?aJ0ZYTrJ!B"  ><path  stroke="#cc9900" fill="#ffbf00" d=" m 0,22  h 0  c 25,-22  71,-22  96,0  h 11 a 4 4 0 0,1 4,4  v 26  V 30  V 62  V 66  V 66 a 4 4 0 0,1 -4,4  h -59  c -2,0  -3,1  -4,2  l -4,4  c -1,1  -2,2  -4,2  h -12  c -2,0  -3,-1  -4,-2  l -4,-4  c -1,-1  -2,-2  -4,-2  h -8 a 4 4 0 0,1 -4,-4 z
"></path><g transform="translate(8,36.5)"><text  style="fill:#ffffff;" dominant-baseline="central" x="0" y="9.5">for each pixel</text></g><path  stroke="#cc9900" fill="none" d=" m 0,22  h 0  c 25,-22  71,-22  96,0  h 11 a 4 4 0 0,1 4,4  v 26  V 30  V 62  V 66  V 66 a 4 4 0 0,1 -4,4  h -59  c -2,0  -3,1  -4,2  l -4,4  c -1,1  -2,2  -4,2  h -12  c -2,0  -3,-1  -4,-2  l -4,-4  c -1,-1  -2,-2  -4,-2  h -8 a 4 4 0 0,1 -4,-4 z
" filter="url(#blocklySelectedGlowFilter9397125427128614)"></path></g></svg>